<?xml version="1.0" encoding="UTF-8"?>
<!DOCTYPE svg PUBLIC "-//W3C//DTD SVG 1.1//EN" "http://www.w3.org/Graphics/SVG/1.1/DTD/svg11.dtd">
<!-- Creator: CorelDRAW -->
<svg xmlns="http://www.w3.org/2000/svg" xml:space="preserve" width="24.8709mm" height="25.659mm" version="1.1" style="shape-rendering:geometricPrecision; text-rendering:geometricPrecision; image-rendering:optimizeQuality; fill-rule:evenodd; clip-rule:evenodd"
viewBox="0 0 313.1 323.02"
 xmlns:xlink="http://www.w3.org/1999/xlink"
 xmlns:xodm="http://www.corel.com/coreldraw/odm/2003">
 <defs>
  <style type="text/css">
   <![CDATA[
    .fil1 {fill:none}
    .fil5 {fill:none;fill-rule:nonzero}
    .fil0 {fill:#100F0F;fill-rule:nonzero}
    .fil4 {fill:#141515;fill-rule:nonzero}
    .fil6 {fill:#094eb3;fill-rule:nonzero}
    .fil7 {fill:#0d6efd;fill-rule:nonzero}
    .fil2 {fill:#F79326;fill-rule:nonzero}
    .fil3 {fill:#F9AF23;fill-rule:nonzero}
   ]]>
  </style>
   <clipPath id="id0">
    <path d="M59.95 0l88.82 0 0 92.08 -88.82 0 0 -92.08zm0 0z"/>
   </clipPath>
   <clipPath id="id1">
    <path d="M-0 56.55l210.95 0 0 266.46 -210.95 0 0 -266.46zm0 0z"/>
   </clipPath>
   <clipPath id="id2" style="clip-rule:nonzero">
    <path d="M82.16 0l84.38 0 0 92.08 -84.38 0 0 -92.08zm0 0z"/>
   </clipPath>
   <clipPath id="id3" style="clip-rule:nonzero">
    <path d="M139.89 172.02l173.2 0 0 151 -173.2 0 0 -151zm0 0z"/>
   </clipPath>
 </defs>
 <g id="Camada_x0020_1">
  <metadata id="CorelCorpID_0Corel-Layer"/>
  <g>
  </g>
  <g style="clip-path:url(#id0)">
   <g id="_2867157624064">
    <path class="fil0" d="M139.96 91.96c-2.64,0 -4.79,-2.15 -4.79,-4.81l0 -45.17c0,-17.76 -14.43,-32.23 -32.16,-32.23 -17.75,0 -32.2,14.47 -32.2,32.23l0 45.17c0,2.65 -2.13,4.81 -4.77,4.81 -2.64,0 -4.79,-2.15 -4.79,-4.81l0 -45.17c0,-23.06 18.72,-41.81 41.76,-41.81 23,0 41.74,18.75 41.74,41.81l0 45.17c0,2.65 -2.13,4.81 -4.79,4.81z"/>
   </g>
  </g>
  <path class="fil1" d="M59.95 0l88.82 0 0 92.08 -88.82 0 0 -92.08zm0 0z"/>
  <path class="fil1" d="M59.95 0l88.82 0 0 92.08 -88.82 0 0 -92.08zm0 0z"/>
  <g>
  </g>
  <g style="clip-path:url(#id1)">
   <g id="_2867157623872">
    <path class="fil2" d="M210.48 311.27c0,6.42 -5.22,11.64 -11.62,11.64l-187.25 0c-6.38,0 -11.62,-5.22 -11.62,-11.64l21.79 -242.61c0,-6.4 5.22,-11.64 11.61,-11.64l143.71 0c6.4,0 11.62,5.24 11.62,11.64l21.77 242.61z"/>
   </g>
  </g>
  <path class="fil1" d="M-0 56.55l210.95 0 0 266.46 -210.95 0 0 -266.46zm0 0z"/>
  <path class="fil1" d="M-0 56.55l210.95 0 0 266.46 -210.95 0 0 -266.46zm0 0z"/>
  <path class="fil3" d="M229.5 311.27c0,6.42 -5.22,11.64 -11.61,11.64l-187.27 0c-6.4,0 -11.62,-5.22 -11.62,-11.64l21.79 -242.61c0,-6.4 5.22,-11.64 11.61,-11.64l143.73 0c6.37,0 11.61,5.24 11.61,11.64l21.77 242.61z"/>
  <path class="fil2" d="M97.7 87.16c0,6.16 -4.96,11.14 -11.08,11.14 -6.14,0 -11.12,-4.98 -11.12,-11.14 0,-6.14 4.98,-11.1 11.12,-11.1 6.12,0 11.08,4.96 11.08,11.1z"/>
  <path class="fil2" d="M172.98 87.16c0,6.16 -4.96,11.14 -11.09,11.14 -6.14,0 -11.1,-4.98 -11.1,-11.14 0,-6.14 4.96,-11.1 11.1,-11.1 6.12,0 11.09,4.96 11.09,11.1z"/>
  <g>
  </g>
  <g style="clip-path:url(#id2)">
   <g id="_2867157627952">
    <path class="fil4" d="M161.21 91.96c-2.65,0 -4.79,-2.15 -4.79,-4.81l0 -45.17c0,-17.76 -14.43,-32.23 -32.18,-32.23 -17.75,0 -32.18,14.47 -32.18,32.23l0 45.17c0,2.65 -2.15,4.81 -4.79,4.81 -2.64,0 -4.79,-2.15 -4.79,-4.81l0 -45.17c0,-23.06 18.74,-41.81 41.76,-41.81 23.02,0 41.76,18.75 41.76,41.81l0 45.17c0,2.65 -2.15,4.81 -4.79,4.81l0 0z"/>
   </g>
  </g>
  <path class="fil5" d="M82.16 0l84.38 0 0 92.08 -84.38 0 0 -92.08zm0 0z"/>
  <path class="fil5" d="M82.16 0l84.38 0 0 92.08 -84.38 0 0 -92.08zm0 0z"/>
  <path class="fil0" d="M242.59 211.18c-2.64,0 -4.79,-2.13 -4.79,-4.77l0 -45.17c0,-17.78 -14.43,-32.25 -32.18,-32.25 -17.75,0 -32.18,14.47 -32.18,32.25l0 45.17c0,2.64 -2.15,4.77 -4.79,4.77 -2.64,0 -4.77,-2.13 -4.77,-4.77l0 -45.17c0,-23.06 18.72,-41.83 41.74,-41.83 23.02,0 41.76,18.77 41.76,41.83l0 45.17c0,2.64 -2.15,4.77 -4.79,4.77l0 0z"/>
  <path class="fil6" d="M294.1 311.27c0,6.42 -5.22,11.64 -11.62,11.64l-146.61 0c-6.4,0 -11.62,-5.22 -11.62,-11.64l0.14 -123.38c0,-6.4 5.22,-11.62 11.62,-11.62l143.71 0c6.38,0 11.61,5.22 11.61,11.62l2.78 123.38z"/>
  <g>
  </g>
  <g style="clip-path:url(#id3)">
   <g id="_2867157630208">
    <path class="fil7" d="M313.11 311.27c0,6.42 -5.24,11.64 -11.62,11.64l-146.62 0c-6.38,0 -11.61,-5.22 -11.61,-11.64l0.14 -123.38c0,-6.4 5.22,-11.62 11.62,-11.62l143.69 0c6.4,0 11.62,5.22 11.62,11.62l2.77 123.38z"/>
   </g>
  </g>
  <path class="fil5" d="M139.89 172.02l173.2 0 0 151 -173.2 0 0 -151zm0 0z"/>
  <path class="fil5" d="M139.89 172.02l173.2 0 0 151 -173.2 0 0 -151zm0 0z"/>
  <path class="fil6" d="M200.35 206.4c0,6.14 -5,11.1 -11.12,11.1 -6.14,0 -11.1,-4.96 -11.1,-11.1 0,-6.16 4.96,-11.14 11.1,-11.14 6.12,0 11.12,4.98 11.12,11.14z"/>
  <path class="fil6" d="M275.61 206.4c0,6.14 -4.98,11.1 -11.1,11.1 -6.12,0 -11.1,-4.96 -11.1,-11.1 0,-6.16 4.98,-11.14 11.1,-11.14 6.12,0 11.1,4.98 11.1,11.14z"/>
  <path class="fil4" d="M263.83 211.18c-2.64,0 -4.79,-2.13 -4.79,-4.77l0 -45.17c0,-17.78 -14.43,-32.25 -32.18,-32.25 -17.73,0 -32.16,14.47 -32.16,32.25l0 45.17c0,2.64 -2.15,4.77 -4.79,4.77 -2.65,0 -4.79,-2.13 -4.79,-4.77l0 -45.17c0,-23.06 18.72,-41.83 41.74,-41.83 23.02,0 41.76,18.77 41.76,41.83l0 45.17c0,2.64 -2.15,4.77 -4.79,4.77l0 0z"/>
 </g>
</svg>
